HIERARCHY
ROOT teapot2
{
	OFFSET 0.000000 0.000000 0.000000
	CHANNELS 6 Xposition Yposition Zposition Yrotation Xrotation Zrotation
	End Site
	{
		OFFSET 0.000000 0.000000 0.000000
	}
}
MOTION
Frames: 102
Frame Time: 0.008333334
1.846775 6.190641 5.322907 177.200700 -2.458954 3.278406 
1.843660 6.190713 5.329515 177.793700 -2.481110 3.321129 
1.840290 6.190362 5.335944 178.315300 -2.575012 3.323015 
1.836035 6.189739 5.344014 178.987700 -2.516907 3.289119 
1.831378 6.189575 5.350409 179.642200 -2.610596 3.204643 
1.825159 6.189266 5.358321 -179.496300 -2.671600 2.976617 
1.817486 6.189212 5.365295 -178.601300 -2.690796 2.781884 
1.808924 6.189851 5.372272 -177.743900 -2.698181 2.526554 
1.799854 6.190817 5.379021 -176.897600 -2.707489 2.204558 
1.790592 6.192395 5.386058 -176.114800 -2.838806 1.860928 
1.782723 6.194869 5.393196 -175.396900 -2.926880 1.561887 
1.774320 6.198171 5.399676 -174.790600 -3.020721 1.348727 
1.768077 6.201780 5.405653 -174.016300 -3.116028 1.156776 
1.762171 6.206232 5.410866 -173.429000 -3.145447 1.025330 
1.756832 6.210630 5.416369 -172.847700 -3.275604 0.889482 
1.751935 6.216337 5.421015 -172.204400 -3.326691 0.749014 
1.746790 6.222434 5.424984 -171.825900 -3.414642 0.649314 
1.742460 6.228853 5.429360 -171.515500 -3.464844 0.534543 
1.739654 6.235437 5.432398 -171.032200 -3.547607 0.470521 
1.737245 6.242741 5.434724 -170.761200 -3.649414 0.463940 
1.735575 6.249981 5.437407 -170.338700 -3.627777 0.374806 
1.734644 6.257270 5.439639 -169.895600 -3.805237 0.397769 
1.733868 6.264202 5.443214 -169.277700 -3.783234 0.417732 
1.733417 6.270378 5.446669 -168.527200 -3.833923 0.185734 
1.732339 6.275922 5.450085 -167.791200 -3.836243 0.040849 
1.731563 6.280679 5.454659 -166.870900 -3.929169 -0.075134 
1.729813 6.284998 5.458810 -165.913600 -3.923553 -0.363007 
1.727826 6.289628 5.461647 -164.882200 -3.935974 -0.591614 
1.726252 6.294416 5.463663 -163.705100 -3.824738 -0.816254 
1.725974 6.300168 5.465984 -162.309200 -3.611359 -0.964050 
1.726472 6.305781 5.467484 -160.780300 -3.488037 -1.237854 
1.727743 6.311636 5.468394 -159.096400 -3.267303 -1.453400 
1.728955 6.318367 5.470003 -157.335100 -2.984436 -1.727051 
1.731480 6.324544 5.471558 -155.434300 -2.786713 -2.036407 
1.734179 6.330137 5.474090 -153.413600 -2.508850 -2.430756 
1.737292 6.336131 5.475927 -151.347200 -2.278107 -2.838623 
1.741475 6.342381 5.477703 -149.249400 -2.016846 -3.199860 
1.745127 6.349773 5.477846 -147.253600 -1.786804 -3.449097 
1.749711 6.357568 5.477191 -145.286600 -1.404846 -3.667694 
1.754996 6.366468 5.474837 -143.403400 -1.194946 -3.820099 
1.760867 6.376956 5.470931 -141.549200 -0.959625 -3.929077 
1.767524 6.388119 5.464620 -139.803900 -0.752655 -4.047150 
1.775195 6.400429 5.456012 -138.189000 -0.627197 -4.031097 
1.782914 6.414523 5.445305 -136.744500 -0.232330 -4.045532 
1.791040 6.429211 5.432316 -135.226700 0.064252 -3.994873 
1.800397 6.444506 5.419531 -133.763600 0.332500 -3.960907 
1.810166 6.461420 5.404269 -132.111900 0.604881 -3.973511 
1.820184 6.479276 5.389437 -130.391600 1.025000 -3.950195 
1.831613 6.496532 5.375885 -128.360800 1.316897 -3.947205 
1.844060 6.514657 5.360043 -126.197800 1.769669 -3.960602 
1.857582 6.533591 5.343899 -123.780200 2.316962 -3.894104 
1.872188 6.553391 5.328738 -121.028000 2.776467 -3.688660 
1.887890 6.572815 5.313264 -118.141700 3.277467 -3.501434 
1.904589 6.592390 5.298704 -115.137600 3.866202 -3.210541 
1.922316 6.611382 5.284142 -111.933200 4.334076 -2.939087 
1.938950 6.629128 5.269745 -108.730200 4.868852 -2.588440 
1.956154 6.646741 5.256690 -105.403700 5.315774 -2.082428 
1.973351 6.663215 5.243984 -102.106700 5.757596 -1.670380 
1.990479 6.678608 5.230713 -98.896610 6.243984 -1.117249 
2.007874 6.691558 5.217828 -95.831970 6.736297 -0.560730 
2.023390 6.703719 5.204980 -92.955380 7.218743 0.185158 
2.039133 6.714044 5.192300 -90.196110 7.730820 0.970362 
2.053226 6.722872 5.180702 -87.670410 8.042827 1.772948 
2.066344 6.729380 5.168028 -85.368930 8.459676 2.650699 
2.079710 6.733382 5.156576 -83.224330 8.814253 3.545345 
2.091369 6.735357 5.144413 -81.233220 9.039759 4.473225 
2.102897 6.735448 5.133088 -79.419190 9.294548 5.545618 
2.113279 6.731823 5.122199 -77.716610 9.474436 6.524426 
2.123564 6.725796 5.112206 -76.111570 9.511476 7.419128 
2.132552 6.716891 5.104638 -74.717100 9.521255 8.162560 
2.141255 6.705655 5.097852 -73.450440 9.585665 8.805525 
2.149133 6.693528 5.092049 -72.421840 9.475610 9.312623 
2.156169 6.679554 5.085998 -71.563050 9.406563 9.594347 
2.160731 6.664824 5.080731 -70.973480 9.358067 9.821670 
2.164059 6.649270 5.075428 -70.560640 9.354983 9.872364 
2.165131 6.633315 5.070835 -70.360600 9.267415 9.834657 
2.165906 6.617137 5.066089 -70.077270 9.187906 9.736694 
2.166070 6.600083 5.061977 -69.828580 9.101604 9.630834 
2.166171 6.582177 5.057909 -69.369080 8.929705 9.466531 
2.164912 6.564010 5.054474 -68.844360 8.745402 9.393713 
2.163751 6.544765 5.050754 -68.249790 8.572680 9.268772 
2.162372 6.525030 5.048402 -67.568150 8.302666 9.139197 
2.161164 6.504470 5.045793 -66.820830 8.120600 9.024617 
2.159719 6.484789 5.042649 -65.970150 7.928793 8.918716 
2.157717 6.464796 5.039701 -65.201780 7.617734 8.758862 
2.155767 6.444878 5.037344 -64.352690 7.395958 8.561368 
2.153822 6.425622 5.034059 -63.504940 7.082163 8.416968 
2.152155 6.406536 5.030295 -62.684110 6.772561 8.128722 
2.150208 6.387964 5.026159 -61.812990 6.481272 7.914835 
2.147880 6.369409 5.021872 -60.970430 6.025420 7.588896 
2.147162 6.351691 5.015843 -59.882780 5.830214 7.396941 
2.145958 6.334524 5.010411 -58.881200 5.478189 7.158891 
2.145689 6.317839 5.003961 -57.823030 5.203253 6.870072 
2.144852 6.302289 4.997362 -56.863040 4.715512 6.627703 
2.145480 6.286824 4.991371 -55.860350 4.488809 6.361158 
2.145386 6.272684 4.984919 -55.146550 4.101093 6.089329 
2.145758 6.260167 4.978667 -54.558380 3.830031 5.873691 
2.146593 6.249446 4.972476 -54.141820 3.561609 5.775546 
2.147573 6.239250 4.966793 -53.843440 3.243196 5.567444 
2.148356 6.231382 4.960937 -53.604830 2.937063 5.575953 
2.148792 6.224148 4.955257 -53.384060 2.722099 5.521379 
2.148677 6.217474 4.949494 -53.195980 2.429519 5.485067 
